# xmcd CD database file
#
# Track frame offsets:
#	150
#	14880
#	31024
#	46553
#	62993
#	79770
#	100123
#	116745
#	131923
#	145217
#	163452
#	182823
#	199571
#	215218
#	240386
#
# Disc length: 3430 seconds
#
# Revision: 0
# Processed by: cddbd v1.5.2PL0 Copyright (c) Steve Scherf et al.
# Submitted via: CDex 1.51
#
DISCID=da0d640f
DTITLE=Josh Turner - Haywire
DYEAR=2010
DGENRE=Country
TTITLE0=Why Don't We Just Dance
TTITLE1=I Wouldn't Be A Man
TTITLE2=Haywire
TTITLE3=Your Smile
TTITLE4=Lovin' You On My Mind
TTITLE5=As Fast As I Could
TTITLE6=I'll Be There
TTITLE7=All Over Me
TTITLE8=Eye Candy
TTITLE9=Friday Paycheck
TTITLE10=The Answer
TTITLE11=This Kind Of Love
TTITLE12=Let's Find A Church (Previously Unreleased From Long Black Train Sessions 2003)
TTITLE13=Long Black Train (Live)
TTITLE14=Your Man (Live)
EXTD=YEAR: 2010
EXTT0=
EXTT1=
EXTT2=
EXTT3=
EXTT4=
EXTT5=
EXTT6=
EXTT7=
EXTT8=
EXTT9=
EXTT10=
EXTT11=
EXTT12=
EXTT13=
EXTT14=
PLAYORDER=
